<svg xmlns="http://www.w3.org/2000/svg" xmlns:xlink="http://www.w3.org/1999/xlink" id="body_1" preserveAspectRatio="xMinYMin meet" viewBox="0 0 793 1123"><defs><clipPath id="1"><path id="" clip-rule="evenodd" transform="matrix(1 0 0 1 0 0)" d="M0 842L0 -0.8800049L0 -0.8800049L595.92 -0.8800049L595.92 -0.8800049L595.92 842L595.92 842L0 842z" /></clipPath><clipPath id="2"><path id="" clip-rule="evenodd" transform="matrix(1 0 0 1 0 0)" d="M0 -0.8800049L596.16 -0.8800049L596.16 -0.8800049L596.16 842.12L596.16 842.12L0 842.12z" /></clipPath><clipPath id="3"><path id="" clip-rule="evenodd" transform="matrix(1 0 0 1 0 0)" d="M68.25 67.37L78 67.37L78 67.37L78 77.12L78 77.12L68.25 77.12z" /></clipPath><clipPath id="4"><path id="" clip-rule="evenodd" transform="matrix(1 0 0 1 0 0)" d="M0 -0.8800049L596.16 -0.8800049L596.16 -0.8800049L596.16 842.12L596.16 842.12L0 842.12z" /></clipPath><clipPath id="5"><path id="" clip-rule="evenodd" transform="matrix(1 0 0 1 0 0)" d="M153.75 67.37L163.5 67.37L163.5 67.37L163.5 77.12L163.5 77.12L153.75 77.12z" /></clipPath><clipPath id="6"><path id="" clip-rule="evenodd" transform="matrix(1 0 0 1 0 0)" d="M0 -0.8800049L596.16 -0.8800049L596.16 -0.8800049L596.16 842.12L596.16 842.12L0 842.12z" /></clipPath><clipPath id="7"><path id="" clip-rule="evenodd" transform="matrix(1 0 0 1 0 0)" d="M0 -0.8800049L596.25 -0.8800049L596.25 -0.8800049L596.25 842.12L596.25 842.12L0 842.12z" /></clipPath><clipPath id="8"><path id="" clip-rule="evenodd" transform="matrix(1 0 0 1 0 0)" d="M498.75 92.87L498.75 26.12C 498.75 25.29156 499.0429 24.58447 499.6287 23.99866C 500.2144 23.4129 500.9215 23.12 501.75 23.12L501.75 23.12L568.5 23.12C 569.3284 23.12 570.0355 23.4129 570.6213 23.99866C 571.207 24.58447 571.4999 25.29156 571.5 26.12L571.5 26.12L571.5 92.87C 571.4999 93.69843 571.207 94.40552 570.6213 94.99133C 570.0355 95.57709 569.3284 95.87 568.5 95.87L568.5 95.87L501.75 95.87C 500.9215 95.87 500.2144 95.57709 499.6287 94.99133C 499.0429 94.40552 498.75 93.69843 498.75 92.87z" /></clipPath><clipPath id="9"><path id="" clip-rule="evenodd" transform="matrix(1 0 0 1 0 0)" d="M0 -0.8800049L596.16 -0.8800049L596.16 -0.8800049L596.16 842.12L596.16 842.12L0 842.12z" /></clipPath></defs><g transform="matrix(1.333333 0 0 1.333333 0 0)"><g clip-path="url(#1)"><g clip-path="url(#2)"><path id="1" transform="matrix(1 0 0 -1 0 842)" d="M0 842.88L595.4999 842.88L595.4999 -0.1199951L0 -0.1199951z" stroke="none" fill="#FFFFFF" fill-rule="nonzero" /><path id="2" transform="matrix(1 0 0 -1 0 842)" d="M0 842.88L595.4999 842.88L595.4999 716.13L0 716.13z" stroke="none" fill="#343A4B" fill-rule="nonzero" /></g><g clip-path="url(#3)"><path id="109" transform="matrix(1 0 0 -1 0 842)" d="M74.29574 768.024L73.87049 767.7083C 73.87049 767.7083 73.44524 767.508 72.93299 767.9662C 72.42299 768.4252 71.51549 769.4745 71.26049 770.0768C 71.00399 770.679 71.51549 770.937 71.51549 770.937C 71.5155 770.937 72.18224 771.4965 72.20999 771.597C 72.23849 771.6968 72.60749 772.0995 71.81324 773.1743C 71.01899 774.2505 70.83524 774.0353 70.40999 773.7045C 69.98474 773.3752 69.38774 772.7295 69.26099 771.9825C 69.13274 771.2363 69.04874 770.3175 70.1265 768.6825C 71.20349 767.0468 72.83399 765.798 73.74149 765.5978C 74.65049 765.3975 75.28799 765.2678 76.19399 766.0132C 77.10149 766.7595 77.25899 766.8307 76.84649 767.3625C 76.43849 767.895 75.53399 768.531 75.39749 768.5573C 75.26249 768.585 75.06749 768.6307 74.76225 768.402C 74.45699 768.174 74.29575 768.024 74.29575 768.024" stroke="none" fill="#C0C4CC" fill-rule="nonzero" /></g><g clip-path="url(#4)"></g><g clip-path="url(#5)"><path id="121" transform="matrix(1 0 0 -1 0 842)" d="M162.2348 773.312C 162.6006 773.312 162.8966 773.0161 162.8966 772.6502L162.8966 772.6502L162.8966 772.3665L162.8966 772.3665L158.6257 769.8184L158.6257 769.8184L154.3598 772.3665L154.3598 772.3665L154.3598 772.651C 154.3598 773.0161 154.6557 773.312 155.0216 773.312L155.0216 773.312L162.2348 773.312L162.2348 773.312L162.2348 773.312zM162.8966 771.5916L162.8966 766.8598C 162.8966 766.4939 162.6006 766.198 162.2348 766.198L162.2348 766.198L155.0216 766.198C 154.8388 766.198 154.6828 766.2626 154.5536 766.3918C 154.4244 766.5211 154.3598 766.6771 154.3598 766.8598L154.3598 766.8598L154.3598 771.5916L154.3598 771.5916L158.6257 769.0436L158.6257 769.0436L162.8966 771.5916L162.8966 771.5916L162.8966 771.5916z" stroke="none" fill="#C0C4CC" fill-rule="nonzero" /></g><g clip-path="url(#6)"></g><g clip-path="url(#7)"><g clip-path="url(#8)"><g transform="matrix(0.36375 0 0 0.36375 498.75 23.12)"><g transform="matrix(1 0 0 1 0 0)"><image x="0" y="0" xlink:href="img_01.png" width="200" height="200" /></g></g></g></g><g clip-path="url(#9)"><path id="854" transform="matrix(1 0 0 -1 0 842)" d="M24 683.13L571.4999 683.13L571.4999 682.38L24 682.38z" stroke="none" fill="#E3E4E6" fill-rule="nonzero" /><path id="855" transform="matrix(1 0 0 -1 0 842)" d="M24 683.13L571.4999 683.13L571.4999 682.38L24 682.38z" stroke="none" fill="#E3E4E6" fill-rule="nonzero" /><path id="856" transform="matrix(1 0 0 -1 0 842)" d="M24 473.88L571.4999 473.88L571.4999 473.13L24 473.13z" stroke="none" fill="#E3E4E6" fill-rule="nonzero" /><path id="857" transform="matrix(1 0 0 -1 0 842)" d="M24 473.88L571.4999 473.88L571.4999 473.13L24 473.13z" stroke="none" fill="#E3E4E6" fill-rule="nonzero" /><path id="858" transform="matrix(1 0 0 -1 0 842)" d="M24 691.38L86.24999 691.38L86.24999 674.88L24 674.88z" stroke="none" fill="#FFFFFF" fill-rule="nonzero" /><path id="863" transform="matrix(1 0 0 -1 0 842)" d="M24 482.13L86.24999 482.13L86.24999 465.63L24 465.63z" stroke="none" fill="#FFFFFF" fill-rule="nonzero" /></g></g></g></svg>