<svg xmlns="http://www.w3.org/2000/svg" xmlns:xlink="http://www.w3.org/1999/xlink" id="body_3" preserveAspectRatio="xMinYMin meet" viewBox="0 0 793 1123"><defs><clipPath id="1"><path id="" clip-rule="evenodd" transform="matrix(1 0 0 1 0 0)" d="M0 842L0 -0.8800049L0 -0.8800049L595.92 -0.8800049L595.92 -0.8800049L595.92 842L595.92 842L0 842z" /></clipPath><clipPath id="2"><path id="" clip-rule="evenodd" transform="matrix(1 0 0 1 0 0)" d="M0 14.12L596 14.12L596 14.12L596 842.1201L596 842.1201L0 842.1201z" /></clipPath></defs><g transform="matrix(1.333333 0 0 1.333333 0 0)"><g clip-path="url(#1)"><g clip-path="url(#2)"><path id="1" transform="matrix(1 0 0 -1 0 842)" d="M0 827.8798L595.5 827.8798L595.5 -0.1203613L0 -0.1203613z" stroke="none" fill="#FFFFFF" fill-rule="nonzero" /></g></g></g></svg>