<svg xmlns="http://www.w3.org/2000/svg" xmlns:xlink="http://www.w3.org/1999/xlink" id="body_2" preserveAspectRatio="xMinYMin meet" viewBox="0 0 793 1123"><defs><clipPath id="1"><path id="" clip-rule="evenodd" transform="matrix(1 0 0 1 0 0)" d="M0 842L0 -0.8800049L0 -0.8800049L595.92 -0.8800049L595.92 -0.8800049L595.92 842L595.92 842L0 842z" /></clipPath><clipPath id="2"><path id="" clip-rule="evenodd" transform="matrix(1 0 0 1 0 0)" d="M0 14.12L596 14.12L596 14.12L596 842.1201L596 842.1201L0 842.1201z" /></clipPath></defs><g transform="matrix(1.333333 0 0 1.333333 0 0)"><g clip-path="url(#1)"><g clip-path="url(#2)"><path id="1" transform="matrix(1 0 0 -1 0 842)" d="M0 827.8799L595.5 827.8799L595.5 -0.1201172L0 -0.1201172z" stroke="none" fill="#FFFFFF" fill-rule="nonzero" /><path id="662" transform="matrix(1 0 0 -1 0 842)" d="M24 548.1299L571.5 548.1299L571.5 547.3799L24 547.3799z" stroke="none" fill="#E3E4E6" fill-rule="nonzero" /><path id="663" transform="matrix(1 0 0 -1 0 842)" d="M24 548.1299L571.5 548.1299L571.5 547.3799L24 547.3799z" stroke="none" fill="#E3E4E6" fill-rule="nonzero" /><path id="664" transform="matrix(1 0 0 -1 0 842)" d="M24 556.3799L86.25 556.3799L86.25 539.8799L24 539.8799z" stroke="none" fill="#FFFFFF" fill-rule="nonzero" /></g></g></g></svg>